<svg xmlns="http://www.w3.org/2000/svg" viewBox="0 0 200 200" class="metric-ultimate">
  <defs>
    <filter id="glow" x="-20%" y="-20%" width="140%" height="140%">
      <feGaussianBlur stdDeviation="2" result="blur"/>
      <feComposite in="SourceGraphic" in2="blur" operator="over"/>
    </filter>
  </defs>

  <!-- 背景 -->
  <circle cx="100" cy="100" r="95" fill="#FFF"/>

  <g transform="translate(100 100)">
    <!-- 数据库图标 - 发光版 -->
    <g transform="scale(1.6) translate(0, -2)">
      <!-- MySQL数据库 (左) -->
      <ellipse cx="-25" cy="-30" rx="20" ry="8" fill="#00758F" opacity="0.8" filter="url(#glow)"/>
      <path d="M-45 -30 L-45 -15 C-45 -7 -5 -7 -5 -15 L-5 -30" fill="#00758F" opacity="0.6"/>
      <ellipse cx="-25" cy="-15" rx="20" ry="8" fill="#00758F" opacity="0.8"/>

      <!-- Redis数据库 (右) -->
      <ellipse cx="25" cy="-30" rx="20" ry="8" fill="#DC382D" opacity="0.8" filter="url(#glow)"/>
      <path d="M5 -30 L5 -15 C5 -7 45 -7 45 -15 L45 -30" fill="#DC382D" opacity="0.6"/>
      <ellipse cx="25" cy="-15" rx="20" ry="8" fill="#DC382D" opacity="0.8"/>

      <!-- 连接线 - 发光 -->
      <path d="M-25 -12L-25 0" stroke="#5EAFED" stroke-width="4" fill="none" filter="url(#glow)"/>
      <path d="M25 -12L25 0" stroke="#5EAFED" stroke-width="4" fill="none" filter="url(#glow)"/>

      <!-- 数据流动效果 -->
      <path d="M-35 -35 L-15 -35" stroke="#FFF" stroke-width="3" stroke-dasharray="5,5" opacity="0.9">
        <animate attributeName="stroke-dashoffset" values="0;10" dur="1s" repeatCount="indefinite"/>
      </path>
      <path d="M15 -35 L35 -35" stroke="#FFF" stroke-width="3" stroke-dasharray="5,5" opacity="0.9">
        <animate attributeName="stroke-dashoffset" values="0;10" dur="1s" begin="0.5s" repeatCount="indefinite"/>
      </path>
      <path d="M-30 10L30 10" stroke="#5EAFED" stroke-width="4" stroke-dasharray="8,8" opacity="0.9" filter="url(#glow)">
        <animate attributeName="stroke-dashoffset" values="0;16" dur="1s" begin="0.3s" repeatCount="indefinite"/>
      </path>
    </g>

    <!-- 密集30标识 - 发光 -->
    <g transform="translate(0 30)">
      <rect x="-55" y="-42" width="110" height="84" rx="18" fill="#1A2E40"/>
      <text x="0" y="15" font-family="'Montserrat', sans-serif" font-size="70" font-weight="900" text-anchor="middle" fill="#FFF" filter="url(#glow)">
        <tspan>3</tspan>
        <tspan fill="#5EAFED" dx="0">0</tspan>
      </text>
    </g>
  </g>
</svg>