<?xml version="1.0" encoding="UTF-8"?>
<svg xmlns="http://www.w3.org/2000/svg" viewBox="0 0 200 200">
  <defs>
    <linearGradient id="robotGradient1" x1="0%" y1="0%" x2="100%" y2="100%">
      <stop offset="0%" stop-color="#42A5F5"/>
      <stop offset="100%" stop-color="#1565C0"/>
    </linearGradient>
    <linearGradient id="screenGradient1" x1="0%" y1="0%" x2="100%" y2="100%">
      <stop offset="0%" stop-color="#E1F5FE"/>
      <stop offset="100%" stop-color="#B3E5FC"/>
    </linearGradient>
  </defs>

  <circle cx="100" cy="100" r="95" fill="#E3F2FD"/>

  <g transform="translate(100, 80)">
    <rect x="-45" y="-50" width="90" height="75" rx="10" fill="url(#robotGradient1)" stroke="#0D47A1" stroke-width="3"/>

    <rect x="-35" y="-40" width="70" height="50" rx="5" fill="url(#screenGradient1)" stroke="#0D47A1" stroke-width="2"/>

    <circle cx="-15" cy="-15" r="8" fill="#0D47A1"/>
    <circle cx="15" cy="-15" r="8" fill="#0D47A1"/>
    <path d="M-15,5 Q0,15 15,5" stroke="#0D47A1" stroke-width="3" fill="none"/>

    <circle cx="-35" cy="15" r="5" fill="#90CAF9" stroke="#0D47A1" stroke-width="1"/>
    <circle cx="-20" cy="15" r="5" fill="#90CAF9" stroke="#0D47A1" stroke-width="1"/>
    <circle cx="20" cy="15" r="5" fill="#90CAF9" stroke="#0D47A1" stroke-width="1"/>
    <circle cx="35" cy="15" r="5" fill="#90CAF9" stroke="#0D47A1" stroke-width="1"/>

    <line x1="-25" y1="-50" x2="-35" y2="-70" stroke="#0D47A1" stroke-width="2"/>
    <line x1="25" y1="-50" x2="35" y2="-70" stroke="#0D47A1" stroke-width="2"/>
  </g>

  <g transform="translate(100, 140)">
    <rect x="-35" y="-22" width="70" height="45" rx="5" fill="#1565C0"/>
    <text x="0" y="10" font-family="Courier New, monospace" font-size="35" font-weight="bold" text-anchor="middle" fill="#E3F2FD">30</text>
  </g>
</svg>