<?xml version="1.0" encoding="UTF-8"?>
<svg xmlns="http://www.w3.org/2000/svg" viewBox="0 0 200 200">
  <defs>
    <linearGradient id="robotGradient8" x1="0%" y1="0%" x2="100%" y2="100%">
      <stop offset="0%" stop-color="#673AB7"/>
      <stop offset="100%" stop-color="#311B92"/>
    </linearGradient>
  </defs>

  <circle cx="100" cy="100" r="95" fill="#EDE7F6"/>

  <g transform="translate(100, 80)">
    <path d="M-40,-30 Q-40,-45 -20,-45 L20,-45 Q40,-45 40,-30 L40,15 Q40,30 20,30 L-20,30 Q-40,30 -40,15 Z"
          fill="url(#robotGradient8)" stroke="#311B92" stroke-width="3"/>

    <rect x="-25" y="-25" width="20" height="10" rx="5" fill="white"/>
    <rect x="5" y="-25" width="20" height="10" rx="5" fill="white"/>
    <rect x="-20" y="-23" width="10" height="6" fill="#311B92"/>
    <rect x="10" y="-23" width="10" height="6" fill="#311B92"/>

    <path d="M-15,5 Q0,15 15,5" stroke="white" stroke-width="3" fill="none"/>

    <path d="M-30,-45 L-25,-60 L-20,-45" stroke="#673AB7" stroke-width="3" fill="none"/>
    <path d="M20,-45 L25,-60 L30,-45" stroke="#673AB7" stroke-width="3" fill="none"/>
  </g>

  <g transform="translate(100, 140)">
    <rect x="-35" y="-22" width="70" height="45" rx="10" fill="#311B92"/>
    <text x="0" y="10" font-family="Arial, sans-serif" font-size="35" font-weight="bold" text-anchor="middle" fill="white">30</text>
  </g>
</svg>