<?xml version="1.0" encoding="UTF-8"?>
<svg xmlns="http://www.w3.org/2000/svg" viewBox="0 0 200 200">
  <defs>
    <linearGradient id="robotGradient4" x1="0%" y1="0%" x2="100%" y2="100%">
      <stop offset="0%" stop-color="#4CAF50"/>
      <stop offset="100%" stop-color="#1B5E20"/>
    </linearGradient>
    <filter id="glow4" x="-20%" y="-20%" width="140%" height="140%">
      <feGaussianBlur stdDeviation="2" result="blur"/>
      <feComposite in="SourceGraphic" in2="blur" operator="over"/>
    </filter>
  </defs>

  <circle cx="100" cy="100" r="95" fill="#E8F5E9"/>

  <g transform="translate(100, 80)">
    <path d="M-40,-40 C-50,-30 -50,20 -40,30 L40,30 C50,20 50,-30 40,-40 Z" fill="url(#robotGradient4)" stroke="#1B5E20" stroke-width="3"/>

    <circle cx="-15" cy="-15" r="12" fill="white" stroke="#1B5E20" stroke-width="2"/>
    <circle cx="15" cy="-15" r="12" fill="white" stroke="#1B5E20" stroke-width="2"/>
    <circle cx="-15" cy="-15" r="6" fill="#1B5E20"/>
    <circle cx="15" cy="-15" r="6" fill="#1B5E20"/>

    <rect x="-20" y="5" width="40" height="10" rx="5" fill="white" stroke="#1B5E20" stroke-width="2"/>

    <path d="M-5,-40 L0,-60 L5,-40" stroke="#1B5E20" stroke-width="3" fill="none"/>
    <circle cx="0" cy="-60" r="5" fill="#4CAF50"/>
  </g>

  <g transform="translate(100, 140)">
    <rect x="-35" y="-22" width="70" height="45" rx="10" fill="#1B5E20"/>
    <text x="0" y="10" font-family="Arial, sans-serif" font-size="35" font-weight="bold" text-anchor="middle" fill="white">30</text>
  </g>
</svg>